<?xml version="1.0" encoding="utf-8" ?><svg xmlns="http://www.w3.org/2000/svg" xmlns:xlink="http://www.w3.org/1999/xlink" width="473" height="461" viewBox="0 0 473 461"><path fill="white" d="M0 0L473 0L473 461L0 461L0 0Z"/><defs><linearGradient id="gradient_0" gradientUnits="userSpaceOnUse" x1="183.28186" y1="432.75766" x2="281.61084" y2="23.227764"><stop offset="0" stop-color="#EA9F18"/><stop offset="1" stop-color="#FEC115"/></linearGradient></defs><path fill="url(#gradient_0)" d="M205.502 18.3847C212.5 16.257 228.904 15.6594 236.371 16.153C239.544 16.3628 243.636 17.1262 246.913 17.46C248.799 17.6521 250.953 17.693 252.797 17.9816C259.722 18.2192 274.119 20.4635 280.947 22.2248C282.901 22.6521 284.962 23.1224 286.914 23.4011C293.877 24.3949 301.151 27.1037 307.603 29.7748C318.218 34.1692 329.275 37.3227 338.629 44.2122C340.173 45.3495 342.165 46.5674 343.842 47.5602C350.005 50.7569 354.657 53.6188 359.799 58.3326C360.208 58.7069 361.844 59.9663 362.014 60.3194C363.905 61.4569 370.728 66.5224 371.813 68.2506C378.642 74.5529 384.629 79.8438 390.633 87.0641C392.648 89.4863 394.46 92.1367 396.445 94.466C398.255 96.2163 400.516 99.4494 402.143 101.457C406.724 107.11 410.789 113.16 414.592 119.358C415.615 121.023 416.705 123.546 417.651 125.35C419.328 128.481 420.702 131.706 422.188 134.93C423.891 137.47 430.127 152.417 430.407 155.185C434.199 163.647 435.704 169.956 437.705 178.874C439.323 186.088 441.413 193.376 442.404 200.847C444.474 216.525 444.629 232.244 443.335 247.992C442.997 252.102 441.88 256.128 441.401 260.103C440.635 266.458 439.927 272.217 437.777 278.299C437.432 279.277 437.181 281.45 436.835 282.169C436.208 287.078 433.608 298.396 431.172 302.582C430.626 304.411 428.332 309.566 427.361 311.306C425.464 314.79 424.251 317.731 422.594 321.293C419.72 328.333 417.175 332.174 413.151 338.553C410.577 342.634 408.967 345.6 405.866 349.473C404.752 351.205 398.923 359.517 397.686 360.526C393.375 366.718 380.543 380.188 374.616 384.477L371.615 386.874C366.313 391.665 362.527 395.611 356.571 399.697L354.963 400.669C352.013 402.674 348.953 404.465 346.064 406.438C343.756 408.17 341.426 409.974 339.001 411.531C334.154 414.641 328.639 417.104 323.44 419.583C319.409 421.742 311.25 424.818 306.657 426.425C301.789 428.343 288.941 432.995 283.931 433.31C279.564 434.569 276.449 435.48 271.949 436.155C270.781 436.106 264.116 437.44 262.501 437.701C257.567 438.503 252.6 439.087 247.614 439.454C225.743 440.989 197.352 437.387 176.121 431.506C173.424 430.944 167.956 429.903 165.453 429.009C153.547 424.76 141.811 420.041 130.69 413.999C127.978 412.223 123.085 410.623 120.655 408.744C115.774 404.97 110.273 402.319 105.292 399.036C104.176 396.873 105.06 396.259 103.959 394.665L102.645 393.258C101.139 393.185 99.0886 393.22 97.6325 393.61C90.9933 390.591 89.6908 388.001 85.8187 381.72C85.2942 381.068 84.4857 379.656 83.9895 378.895C80.6779 373.847 76.0572 369.917 72.2384 365.299C61.0353 351.753 52.4407 339.178 44.4891 323.444C27.1526 289.4 19.4783 251.256 22.3001 213.156C24.1358 187.947 29.9734 166.822 39.4365 143.588C48.2992 120.355 63.4807 100.579 79.9367 82.1997C87.9877 73.2075 98.5979 64.4793 108.295 57.1243C113.26 53.0771 121.569 47.4332 127.089 44.1337C129.526 42.6774 135.661 40.155 138.729 38.647C141.471 36.965 144.982 35.4797 147.959 34.1278C153.128 31.3906 158.081 29.7825 163.571 27.9656C166.949 26.7506 169.162 26.115 172.758 25.5109C173.984 25.2459 175.481 24.9764 176.664 24.6238C186.126 21.8026 195.77 20.0533 205.502 18.3847Z"/><defs><linearGradient id="gradient_1" gradientUnits="userSpaceOnUse" x1="245.79027" y1="302.6037" x2="227.61218" y2="95.566307"><stop offset="0" stop-color="#FDCD26"/><stop offset="1" stop-color="#FDF668"/></linearGradient></defs><path fill="url(#gradient_1)" d="M188.376 41.4623C193.404 40.612 199.991 38.9354 204.95 38.5296C216.057 37.9771 227.686 36.2763 238.784 36.8779C248.437 37.4012 259.064 38.0659 268.644 39.2479C272.932 40.2532 275.553 40.9121 279.772 42.277L280.008 42.3052C286.822 43.0733 287.859 41.0224 294.67 45.0436C300.492 48.514 306.478 51.7013 312.608 54.5942C314.937 55.6717 321.054 58.0477 322.795 59.0805C323.468 59.5393 324.4 60.1292 324.988 60.6606C327.475 61.9606 332.06 64.718 334.136 66.5346C336.538 68.6734 340.387 73.3085 343.234 73.8878C345.106 73.5828 346.628 72.3479 348.477 71.801C349.344 71.1568 349.807 70.8184 350.574 70.0715C353.973 68.2843 356.081 67.5719 359.792 66.6203C361.75 66.5973 364.908 67.3065 366.526 68.3431C368.159 69.1575 368.526 69.4264 369.956 70.5768C370.619 71.2799 371.288 71.8139 371.517 72.7162L371.418 73.287L371.566 74.0167C371.344 80.9978 371.372 87.4787 370.066 94.3678C371.882 95.1628 371.708 95.6412 372.729 97.1931C376.258 102.634 380.953 106.878 384.905 112.055C390.339 119.175 394.651 127.47 399.568 134.967C402.186 138.961 403.926 145.233 405.901 149.581C407.392 152.864 409.06 156.059 410.268 159.434C410.497 160.131 409.846 161.641 409.487 162.299C407.094 166.692 406.501 171.629 404.753 176.274C404.36 177.318 403.017 178.104 402.81 178.867L403.21 179.469C402.144 182.262 401.128 183.444 398.789 185.045C398.456 185.273 397.929 186.6 397.583 186.935C396.084 189.041 394.256 190.826 392.743 192.931C392.446 193.344 389.947 194.362 389.645 194.692C388.827 195.585 388.994 196.43 387.859 197.24L387.014 197.067C385.762 198.339 384.787 201.278 383.779 201.457C383.087 201.58 382.81 201.346 381.641 201.96C380.965 203.532 380.788 204.56 379.587 206.099C379.329 205.532 379.11 204.974 378.75 204.466L378.657 204.716C377.992 206.45 374.873 213.269 373.943 214.582C373.068 214.91 372.718 214.926 371.778 215.055L371.763 215.597L372.086 215.867C372.421 216.149 372.517 216.234 372.795 216.587C370.431 218.766 369.938 213.81 366.205 222.435C365.557 222.882 364.78 223.354 364.288 223.944C364.395 226.678 364.446 228.471 364.372 231.169C364.513 230.978 364.652 230.786 364.789 230.591L365.031 230.747L365.058 231.285L365.413 230.948L365.911 231.72L366.263 231.401L366.847 231.92C366.398 233.777 364.314 235.501 364.266 236.534C364.869 236.796 365.389 237.01 366.003 237.243C365.308 240.148 359.263 243.942 360.082 246.725C360.989 247.259 361.216 247.234 362.288 247.401C362.24 247.625 360.789 250.033 360.492 250.176C359.049 249.552 358.715 248.261 358 248.306C357.636 249.339 357.561 249.056 357.815 249.929C358.943 250.44 359.54 250.317 360.202 251.005C359.813 251.846 359.561 252.322 359.328 253.212C360.027 254.038 361.026 253.613 361.786 254.521C361.512 255.769 360.908 254.597 360.865 256.345C362.291 256.947 364.128 255.78 365.498 255.137C364.94 255.978 363.414 258.004 363.387 258.85C364.01 258.843 364.361 258.56 364.911 258.247L365.991 258.374C366.208 259.466 364.162 260.397 364.052 261.606C366.211 261.545 367.128 260.056 368.125 260.457C367.829 261.645 365.002 263.416 365.029 264.739L365.384 264.924C366.014 264.662 366.365 264.503 367.04 264.336L367.267 264.643L366.899 265.164C367.782 265.651 368.055 265.813 368.842 266.431C368.573 267.077 368.454 267.119 368.087 267.646C365.732 271.024 364.711 275.415 361.838 278.461C360.911 279.442 358.309 281.968 356.961 281.945L356.757 281.603L357.121 280.348C356.49 280.43 355.389 281.469 355.076 282.009L355.353 282.626L354.86 282.954C354.354 282.759 354.587 282.887 354.16 282.575C353.176 283.156 351.585 284.185 350.595 284.7C350.158 284.928 348.891 284.107 347.997 284.408C348.229 285.215 348.368 285.15 348.086 285.71L347.359 285.838L347.024 285.575C347.167 285.03 347.286 284.656 347.472 284.123C346.265 284.855 347.042 285.485 345.837 285.8C345.006 285.456 344.394 285.141 343.506 285.03C343.005 285.272 342.382 285.573 341.637 285.933C340.871 285.729 337.418 285.102 336.673 285.402C335.033 286.062 332.261 287.494 330.771 288.468C330.734 288.492 327.687 288.027 326.91 288.817C326.946 288.781 325.161 289.63 324.863 289.491C324.27 289.214 323.97 288.868 323.436 288.37C321.681 288.758 321.426 289.449 320.304 287.978C318.617 287.89 316.677 288.861 315.106 288.732C314.205 288.659 312.954 287.235 311.481 287.69C310.977 287.757 309.075 288.181 308.767 288.773C308.032 290.183 302.487 290.055 302.254 290.363C300.805 292.275 296.49 293.285 293.95 294.212C293.124 294.513 291.443 294.975 291.318 296.023C286.873 296.989 282.508 298.183 278.106 299.314C276.528 299.624 274.905 299.756 273.327 300.075C272.414 300.26 270.984 300.364 270.129 300.576C267.493 301.23 257.105 299.091 255.498 300.429L255.033 300.011C254.15 300.069 253.669 300.243 252.873 300.51C252.658 300.582 251.923 299.613 251.376 299.905L251.421 300.473C250.761 300.992 248.042 300.463 247.078 300.684C246.378 300.845 245.621 300.055 245.075 299.557C243.901 299.406 243.651 300.112 243.276 300.107C242.328 300.095 240.82 299.496 239.809 299.293C238.939 299.118 235.041 299.329 234.715 299.212L234.749 298.589L234.864 299.267L234.68 299.076L234.695 298.255C234.395 298.055 234.082 297.753 233.677 297.963C229.425 300.175 224.538 298.196 219.922 298.247C218.826 298.259 210.631 298.188 210.165 297.997C198.646 293.273 186.185 292.03 174.371 288.133C167.217 285.729 161.636 287.198 154.299 288.001C150.772 288.386 150.451 289.921 147.781 290.651L147.508 290.563L147.086 289.595L146.807 289.528C146.749 289.881 146.683 290.287 146.609 290.745C145.527 291.78 144.631 292.754 143.889 293.859C142.511 295.911 134.629 307.046 133.037 308.279C130.458 312.316 121.997 317.13 117.36 318.048C110.813 319.313 109.42 320.062 102.991 318.279C101.468 317.812 99.7511 317.163 98.2305 316.628C95.1813 316.245 89.7902 313.501 87.3409 311.757C81.7981 308.068 78.7207 300.948 74.1251 296.626C68.4098 291.251 70.0456 290.172 68.224 283.754C65.5284 274.258 63.0481 265.727 61.5254 255.913C60.7243 254.212 60.5283 251.945 60.0509 250.143C57.1589 239.054 58.7222 227.496 59.3223 216.214C59.6778 209.532 59.5561 202.757 60.4125 196.168C60.6331 194.47 60.7107 193.296 60.6398 191.568C60.3992 185.709 59.3584 180.023 58.1296 174.306C57.6278 171.545 57.0256 168.603 56.7877 165.806C56.736 165.197 57.5002 160.758 57.6759 160.11C58.1075 158.519 59.2641 156.467 59.7465 154.806C60.3108 152.863 60.119 150.872 60.7925 148.966C64.5066 140.374 68.9749 130.957 73.9634 123.046C75.8551 120.046 80.0913 115.169 82.3012 112.672C84.6937 108.513 87.9283 105.195 90.9676 101.509C92.8347 99.2444 95.3399 95.6921 97.4703 93.7987C98.2106 92.4644 102.187 89.3089 103.444 88.0414C106.219 85.6144 109.056 81.9236 112.14 79.8931C116.866 76.7809 121.265 73.4992 125.761 70.0704C127.81 68.5833 130.908 67.4404 132.849 65.9465C144.942 56.6418 159.611 52.5199 173.138 45.8038C177.109 43.8323 184.019 42.3516 188.376 41.4623Z"/><defs><linearGradient id="gradient_2" gradientUnits="userSpaceOnUse" x1="211.95847" y1="131.29216" x2="221.34901" y2="35.639851"><stop offset="0" stop-color="#FEF887"/><stop offset="1" stop-color="#FDFEF3"/></linearGradient></defs><path fill="url(#gradient_2)" d="M188.376 41.4623C193.404 40.612 199.991 38.9354 204.95 38.5296C216.057 37.9771 227.686 36.2763 238.784 36.8779C248.437 37.4012 259.064 38.0659 268.644 39.2479C272.932 40.2532 275.553 40.9121 279.772 42.277L280.008 42.3052C286.822 43.0733 287.859 41.0224 294.67 45.0436C300.492 48.514 306.478 51.7013 312.608 54.5942C314.937 55.6717 321.054 58.0477 322.795 59.0805C323.468 59.5393 324.4 60.1292 324.988 60.6606C327.475 61.9606 332.06 64.718 334.136 66.5346C336.538 68.6734 340.387 73.3085 343.234 73.8878C345.106 73.5828 346.628 72.3479 348.477 71.801C346.149 74.3487 339.006 80.1502 335.675 80.2856C336.155 82.0234 336.492 82.9784 336.512 84.7692C336.745 88.2371 336.33 94.9379 333.677 97.556C333.192 98.1931 332.535 99.1147 332.025 99.6943L330.369 99.0031C329.348 99.0582 328.498 98.8196 327.493 98.6165C323.468 97.8438 320.7 97.5653 316.985 95.8676C310.322 93.9567 301.026 100.04 293.608 100.094C293.04 100.098 279.414 100.87 280.226 100.468L279.924 101.072C281.999 103.426 287.79 104.499 290.76 104.696C291.138 104.721 291.517 104.734 291.897 104.735C291.944 105.473 291.873 105.314 291.421 106.089C290.287 106.914 286.277 111.505 285.157 112.787C282.712 115.586 275.836 121.101 274.783 124.298L274.392 124.532L274.026 125.208L274.203 125.628C274.933 125.773 275.242 125.727 275.969 125.691L276.143 125.945C275.744 126.099 275.344 126.251 274.943 126.399L275.112 127.047C274.709 129.165 273.166 129.236 271.326 129.465C264.053 130.369 257.229 130.187 249.957 130.134L228.501 130.125C217.973 130.142 206.767 130.669 196.256 129.824C191.589 129.45 184.021 126.377 178.769 125.872C173.472 125.362 167.267 126.488 162.239 125.899C157.559 125.35 151.654 123.263 146.861 122.612C141.052 121.824 134.852 121.901 128.965 121.573C126.586 121.44 124.642 121.107 122.41 120.923C120.904 121.159 120.002 119.847 118.501 119.981C117.423 120.035 116.264 119.779 115.244 119.443C111.627 118.251 108.026 117.132 104.411 115.922C103.017 115.456 101.901 114.595 100.627 114.157C97.7684 113.172 94.42 112.39 91.4198 111.983C91.3507 111.982 91.2817 111.98 91.2126 111.978C90.3284 111.303 90.0954 111.038 89.3603 110.193C89.4438 109.572 89.573 108.739 89.5835 108.15C89.6328 105.378 89.0554 106.703 88.2178 105.768C88.5537 104.456 96.6992 96.2533 97.4703 93.7987C98.2106 92.4644 102.187 89.3089 103.444 88.0414C106.219 85.6144 109.056 81.9236 112.14 79.8931C116.866 76.7809 121.265 73.4992 125.761 70.0704C127.81 68.5833 130.908 67.4404 132.849 65.9465C144.942 56.6418 159.611 52.5199 173.138 45.8038C177.109 43.8323 184.019 42.3516 188.376 41.4623Z"/><defs><linearGradient id="gradient_3" gradientUnits="userSpaceOnUse" x1="317.01346" y1="85.719429" x2="282.91614" y2="74.988174"><stop offset="0" stop-color="#C85D85"/><stop offset="1" stop-color="#F289B0"/></linearGradient></defs><path fill="url(#gradient_3)" d="M279.924 101.072C280.285 99.3128 279.95 95.5822 279.987 93.5422C280.212 80.8367 284.046 68.2566 289.749 56.9674C290.762 55.194 291.602 52.8251 294.076 53.2795C298.137 54.0135 302.309 55.1392 305.912 57.193C313.422 61.4748 314.956 70.7833 320.227 76.8406C322.891 75.6923 328.107 76.6035 330.886 77.7146C332.577 78.3821 334.184 79.245 335.675 80.2856C336.155 82.0234 336.492 82.9784 336.512 84.7692C336.745 88.2371 336.33 94.9379 333.677 97.556C333.192 98.1931 332.535 99.1147 332.025 99.6943L330.369 99.0031C329.348 99.0582 328.498 98.8196 327.493 98.6165C323.468 97.8438 320.7 97.5653 316.985 95.8676C310.322 93.9567 301.026 100.04 293.608 100.094C293.04 100.098 279.414 100.87 280.226 100.468L279.924 101.072Z"/><defs><linearGradient id="gradient_4" gradientUnits="userSpaceOnUse" x1="334.95963" y1="88.727158" x2="316.07281" y2="85.56926"><stop offset="0" stop-color="#CD5F88"/><stop offset="1" stop-color="#FF99BE"/></linearGradient></defs><path fill="url(#gradient_4)" d="M320.227 76.8406C322.891 75.6923 328.107 76.6035 330.886 77.7146C332.577 78.3821 334.184 79.245 335.675 80.2856C336.155 82.0234 336.492 82.9784 336.512 84.7692C336.745 88.2371 336.33 94.9379 333.677 97.556C333.192 98.1931 332.535 99.1147 332.025 99.6943L330.369 99.0031C329.348 99.0582 328.498 98.8196 327.493 98.6165C323.468 97.8438 320.7 97.5653 316.985 95.8676C315.921 94.9928 314.961 95.0139 314.882 93.4083C314.684 89.3892 316.01 84.8034 317.8 81.2181C318.575 79.6653 319.881 78.3552 320.227 76.8406Z"/><path fill="#C25980" d="M332.92 94.4434C333.865 91.8788 334.978 85.5381 335.873 84.5185L336.512 84.7692C336.745 88.2371 336.33 94.9379 333.677 97.556C333.192 98.1931 332.535 99.1147 332.025 99.6943L330.369 99.0031C329.348 99.0582 328.498 98.8196 327.493 98.6165L328.551 98.4093C328.764 98.0717 328.93 97.8333 329.168 97.5126C329.436 97.8296 329.709 98.1433 329.985 98.4535C330.868 98.2113 332.089 95.4482 332.92 94.4434Z"/><path fill="#AD455C" d="M332.494 96.7358L333.677 97.556C333.192 98.1931 332.535 99.1147 332.025 99.6943L330.369 99.0031C331.282 98.5222 332.009 97.6334 332.494 96.7358Z"/><path fill="#FDF486" d="M279.772 42.277L280.008 42.3052C286.822 43.0733 287.859 41.0224 294.67 45.0436C300.492 48.514 306.478 51.7013 312.608 54.5942C314.937 55.6717 321.054 58.0477 322.795 59.0805C323.468 59.5393 324.4 60.1292 324.988 60.6606C320.556 59.0644 315.235 56.6179 310.996 54.4935C310.482 54.0452 310.093 54.6939 309.402 54.4116C303.375 51.9508 298.431 50.1355 291.982 48.988C288.216 48.3179 283.456 43.8151 279.772 42.277Z"/><path fill="white" d="M108.753 145.609C111.614 145.364 112.326 145.501 115.096 146.319C119.409 147.644 120.564 148.795 124.144 150.846C133.758 156.354 138.593 163.497 143.744 172.983C146.215 177.534 151.926 192.231 151.994 197.109C152.561 199.452 153.823 202.966 155.147 204.989L155.472 205.376L155.741 205.385C156.215 206.781 156.957 208.836 157.15 210.254C156.637 210.321 156.454 210.383 155.955 210.342C156.203 211.875 156.557 213.724 156.589 215.247C156.626 218.179 157.32 225.202 156.753 227.525C156.549 227.658 156.235 227.878 156.029 227.984C156.924 227.876 157.409 227.624 157.942 228.018C158.24 229.829 158.078 232.666 158.077 234.587C158.072 241.361 158.174 246.755 156.795 253.451C156.738 254.54 156.672 256.837 156.484 257.82C156.516 260.319 156.331 263.785 155.897 266.234C154.003 268.18 151.712 268.276 151.527 269.791C151.261 269.795 150.531 269.639 150.229 269.584C149.683 272.225 149.181 274.955 148.392 277.527C145.684 285.241 143.44 290.574 138.897 297.499C137.403 299.776 136.41 301.769 134.552 303.956L135.228 304.718C134.674 305.643 133.376 307.447 133.037 308.279C130.458 312.316 121.997 317.13 117.36 318.048C110.813 319.313 109.42 320.062 102.991 318.279C101.468 317.812 99.7511 317.163 98.2305 316.628C95.1813 316.245 89.7902 313.501 87.3409 311.757C81.7981 308.068 78.7207 300.948 74.1251 296.626C68.4098 291.251 70.0456 290.172 68.224 283.754C65.5284 274.258 63.0481 265.727 61.5254 255.913C61.4629 253.299 60.3512 249.515 60.5473 247.079C60.2335 242.489 59.8477 237.624 59.7805 233.042C58.7963 218.254 61.9923 207.96 65.5858 194.067C66.8227 188.666 68.8561 182.46 70.8037 177.242C71.4288 175.567 73.4157 172.612 74.1935 170.723L74.362 170.304C75.6181 168.945 76.3692 169.543 77.2404 168.671L77.3342 168.949C82.0122 164.19 86.666 158.776 91.6922 154.494C94.5911 152.025 99.1617 149.492 102.595 147.637C104.73 146.502 106.402 146.154 108.753 145.609Z"/><path fill="#2C0500" d="M144.7 212.295C147.2 209.761 152.723 208.809 155.955 210.342C156.203 211.875 156.557 213.724 156.589 215.247C156.626 218.179 157.32 225.202 156.753 227.525C156.549 227.658 156.235 227.878 156.029 227.984C156.924 227.876 157.409 227.624 157.942 228.018C158.24 229.829 158.078 232.666 158.077 234.587C158.072 241.361 158.174 246.755 156.795 253.451C156.738 254.54 156.672 256.837 156.484 257.82C156.516 260.319 156.331 263.785 155.897 266.234C154.003 268.18 151.712 268.276 151.527 269.791C151.261 269.795 150.531 269.639 150.229 269.584C149.963 269.384 145.661 269.792 144.768 269.824C143.931 270.064 140.627 270.103 139.738 270.04C129.47 269.317 119.84 266.174 112.762 258.551L113.009 258.22C113.992 258.992 114.43 259.439 115.672 259.728L115.808 259.523C114.449 258.168 113.817 257.341 112.749 255.811L113.104 255.695C112.379 254.64 110.699 251.496 110.295 251.078L110.199 252.276L109.933 252.224C109.246 251.317 109.035 250.15 108.721 249.025C110.36 244.985 111.748 244.591 115.311 242.917C115.425 242.226 115.512 241.867 115.688 241.205C115.764 239.267 115.484 236.095 115.833 234.353C116.77 229.671 119.633 224.652 122.795 221.216C127.765 215.817 131.761 214.97 138.628 213.603C140.498 213.231 142.814 212.356 144.7 212.295Z"/><defs><linearGradient id="gradient_5" gradientUnits="userSpaceOnUse" x1="134.69843" y1="247.83252" x2="127.89355" y2="265.16373"><stop offset="0" stop-color="#B78C0D"/><stop offset="1" stop-color="#EABB28"/></linearGradient></defs><path fill="url(#gradient_5)" d="M115.688 241.205C118.269 254.595 134.272 261.796 146.806 258.934C150.001 258.205 155.552 256.864 156.795 253.451C156.738 254.54 156.672 256.837 156.484 257.82C156.516 260.319 156.331 263.785 155.897 266.234C154.003 268.18 151.712 268.276 151.527 269.791C151.261 269.795 150.531 269.639 150.229 269.584C149.963 269.384 145.661 269.792 144.768 269.824C143.931 270.064 140.627 270.103 139.738 270.04C129.47 269.317 119.84 266.174 112.762 258.551L113.009 258.22C113.992 258.992 114.43 259.439 115.672 259.728L115.808 259.523C114.449 258.168 113.817 257.341 112.749 255.811L113.104 255.695C112.379 254.64 110.699 251.496 110.295 251.078L110.199 252.276L109.933 252.224C109.246 251.317 109.035 250.15 108.721 249.025C110.36 244.985 111.748 244.591 115.311 242.917C115.425 242.226 115.512 241.867 115.688 241.205Z"/><defs><linearGradient id="gradient_6" gradientUnits="userSpaceOnUse" x1="129.15257" y1="267.63797" x2="130.71983" y2="263.51358"><stop offset="0" stop-color="#483901"/><stop offset="1" stop-color="#815D0D"/></linearGradient></defs><path fill="url(#gradient_6)" d="M112.762 258.551L113.009 258.22C113.992 258.992 114.43 259.439 115.672 259.728L115.808 259.523C114.449 258.168 113.817 257.341 112.749 255.811L113.104 255.695C114.525 257.412 116.192 259.37 117.988 260.715C122.531 264.117 129.815 266.859 135.399 267.382C136.287 267.459 137.176 267.52 138.065 267.564C139.07 268.189 144.209 267.228 144.976 269.521L144.672 269.582L144.768 269.824C143.931 270.064 140.627 270.103 139.738 270.04C129.47 269.317 119.84 266.174 112.762 258.551Z"/><defs><linearGradient id="gradient_7" gradientUnits="userSpaceOnUse" x1="149.17426" y1="269.30457" x2="150.00575" y2="259.27383"><stop offset="0" stop-color="#7B5C08"/><stop offset="1" stop-color="#B28411"/></linearGradient></defs><path fill="url(#gradient_7)" d="M138.065 267.564C143.552 267.474 148.795 265.843 153.093 262.373C154.279 261.416 156.307 259.834 156.137 258.453C156.105 258.193 156.253 258.119 156.484 257.82C156.516 260.319 156.331 263.785 155.897 266.234C154.003 268.18 151.712 268.276 151.527 269.791C151.261 269.795 150.531 269.639 150.229 269.584C149.963 269.384 145.661 269.792 144.768 269.824L144.672 269.582L144.976 269.521C144.209 267.228 139.07 268.189 138.065 267.564Z"/><path fill="white" d="M144.7 212.295C147.2 209.761 152.723 208.809 155.955 210.342C156.203 211.875 156.557 213.724 156.589 215.247C156.626 218.179 157.32 225.202 156.753 227.525C156.549 227.658 156.235 227.878 156.029 227.984C154.201 228.184 153.04 228.18 151.337 227.393C144.938 224.436 141.67 219.059 144.7 212.295Z"/><defs><linearGradient id="gradient_8" gradientUnits="userSpaceOnUse" x1="127.71329" y1="204.51462" x2="135.29327" y2="256.92343"><stop offset="0" stop-color="#5D2604"/><stop offset="1" stop-color="#B99108"/></linearGradient></defs><path fill="url(#gradient_8)" d="M137.375 202.968C141.302 203.029 145.557 202.821 149.413 203.119C151.048 203.245 153.766 204.772 155.147 204.989L155.472 205.376L155.741 205.385C156.215 206.781 156.957 208.836 157.15 210.254C156.637 210.321 156.454 210.383 155.955 210.342C152.723 208.809 147.2 209.761 144.7 212.295C142.814 212.356 140.498 213.231 138.628 213.603C131.761 214.97 127.765 215.817 122.795 221.216C119.633 224.652 116.77 229.671 115.833 234.353C115.484 236.095 115.764 239.267 115.688 241.205C115.512 241.867 115.425 242.226 115.311 242.917C111.748 244.591 110.36 244.985 108.721 249.025C109.035 250.15 109.246 251.317 109.933 252.224L110.199 252.276L110.295 251.078C110.699 251.496 112.379 254.64 113.104 255.695L112.749 255.811C113.817 257.341 114.449 258.168 115.808 259.523L115.672 259.728C114.43 259.439 113.992 258.992 113.009 258.22L112.762 258.551C112.668 258.489 112.574 258.427 112.48 258.365C100.903 247.495 103.276 225.97 112.794 215.054C121.071 205.562 126.251 203.888 137.375 202.968Z"/><defs><linearGradient id="gradient_9" gradientUnits="userSpaceOnUse" x1="81.596191" y1="279.33789" x2="68.160194" y2="287.25897"><stop offset="0" stop-color="#686C73"/><stop offset="1" stop-color="#D6B47B"/></linearGradient></defs><path fill="url(#gradient_9)" d="M62.0227 243.455C62.3042 245.804 62.4847 249.116 63.0523 251.283C65.6342 261.141 67.3931 272.627 71.2866 282C76.2686 293.994 84.6079 306.597 95.8155 313.398C96.6578 313.909 97.9254 314.534 98.6662 315.082C98.1772 315.669 98.0592 315.739 98.2305 316.628C95.1813 316.245 89.7902 313.501 87.3409 311.757C81.7981 308.068 78.7207 300.948 74.1251 296.626C68.4098 291.251 70.0456 290.172 68.224 283.754C65.5284 274.258 63.0481 265.727 61.5254 255.913C61.4629 253.299 60.3512 249.515 60.5473 247.079C60.943 247.48 60.7727 247.359 60.8972 248.124C61.4018 247.199 60.881 246.126 61.6873 245.373C61.7249 245.947 61.7425 246.166 61.8582 246.727L62.0227 243.455Z"/><defs><linearGradient id="gradient_10" gradientUnits="userSpaceOnUse" x1="63.466751" y1="211.14055" x2="61.659592" y2="210.83417"><stop offset="0" stop-color="#3D3C40"/><stop offset="1" stop-color="#576160"/></linearGradient></defs><path fill="url(#gradient_10)" d="M65.5858 194.067C65.7075 194.274 65.6148 194.171 65.9234 194.311C66.3121 193.271 66.3799 192.856 67.1067 192.06L67.394 192.426C64.8014 203.282 61.4741 214.305 61.1987 225.396C60.3023 227.544 60.4582 231.427 59.7805 233.042C58.7963 218.254 61.9923 207.96 65.5858 194.067Z"/><path fill="#42464A" d="M74.362 170.304C75.6181 168.945 76.3692 169.543 77.2404 168.671L77.3342 168.949C75.7238 171.36 73.8364 173.763 72.5767 176.384C70.3738 180.967 69.2575 187.998 67.394 192.426L67.1067 192.06C66.3799 192.856 66.3121 193.271 65.9234 194.311C65.6148 194.171 65.7075 194.274 65.5858 194.067C66.8227 188.666 68.8561 182.46 70.8037 177.242C71.4288 175.567 73.4157 172.612 74.1935 170.723L74.362 170.304Z"/><path fill="#C29927" d="M134.552 303.956L135.228 304.718C134.674 305.643 133.376 307.447 133.037 308.279C130.458 312.316 121.997 317.13 117.36 318.048L117.567 317.676L117.309 317.105C123.166 314.651 126.177 312.462 130.822 308.054C132.103 306.838 133.245 305.261 134.552 303.956Z"/><defs><linearGradient id="gradient_11" gradientUnits="userSpaceOnUse" x1="59.399513" y1="237.85376" x2="62.240555" y2="238.16141"><stop offset="0" stop-color="#3A4544"/><stop offset="1" stop-color="#594C4E"/></linearGradient></defs><path fill="url(#gradient_11)" d="M59.7805 233.042C60.4582 231.427 60.3023 227.544 61.1987 225.396C61.2193 230.082 61.383 234.64 61.7919 239.307C61.9081 240.634 62.0437 242.13 62.0227 243.455L61.8582 246.727C61.7425 246.166 61.7249 245.947 61.6873 245.373C60.881 246.126 61.4018 247.199 60.8972 248.124C60.7727 247.359 60.943 247.48 60.5473 247.079C60.2335 242.489 59.8477 237.624 59.7805 233.042Z"/><path fill="#EBD1AA" d="M151.994 197.109C152.561 199.452 153.823 202.966 155.147 204.989C153.766 204.772 151.048 203.245 149.413 203.119C145.557 202.821 141.302 203.029 137.375 202.968C139.977 202.582 145.295 202.885 148.657 202.638C151.442 200.608 152.093 200.58 151.994 197.109Z"/><path fill="#4F370F" d="M103.436 317.101C108.343 318.49 112.298 318.548 117.309 317.105L117.567 317.676L117.36 318.048C110.813 319.313 109.42 320.062 102.991 318.279C103.09 317.794 103.235 317.553 103.436 317.101Z"/><path fill="#636650" d="M98.2305 316.628C98.0592 315.739 98.1772 315.669 98.6662 315.082C100.245 315.78 101.835 316.454 103.436 317.101C103.235 317.553 103.09 317.794 102.991 318.279C101.468 317.812 99.7511 317.163 98.2305 316.628Z"/><defs><linearGradient id="gradient_12" gradientUnits="userSpaceOnUse" x1="366.86197" y1="93.326065" x2="335.01154" y2="86.7314"><stop offset="0" stop-color="#DF759D"/><stop offset="1" stop-color="#FC97BA"/></linearGradient></defs><path fill="url(#gradient_12)" d="M359.792 66.6203C361.75 66.5973 364.908 67.3065 366.526 68.3431C368.159 69.1575 368.526 69.4264 369.956 70.5768C370.619 71.2799 371.288 71.8139 371.517 72.7162L371.418 73.287L371.566 74.0167C371.344 80.9978 371.372 87.4787 370.066 94.3678C369.946 94.9734 369.623 96.3966 369.598 96.9426C369.062 98.7718 368.149 102.18 367.417 103.804C366.426 108.271 362.131 117.504 359.202 121.042C358.176 122.282 350.649 117.954 348.837 117.72C348.428 118.024 348.449 117.994 348.28 118.475C348.216 118.261 348.156 117.397 348.13 117.122L347.407 117.095C345.576 115.758 340.501 113.292 339.556 111.339L340.394 110.395C339.709 109.131 337.702 108.424 336.484 109.848L335.788 110.047C334.561 112.549 330.662 122.983 327.121 121.678C325.88 123.915 324.869 127.028 323.841 129.409C322.553 132.394 321.3 135.557 320.536 138.703C320.393 139.292 320.748 140.311 320.795 140.907C317.934 138.695 320.342 134.21 319.424 132.325C317.381 131.148 314.381 129.227 311.928 129.729C311.174 130.45 311.796 130.622 310.896 131.6L310.453 131.067C310.395 131.761 310.402 131.744 310.149 132.392L309.741 132.253L309.598 131.633C309.311 131.95 309.956 133.046 309.66 134.18L309.28 134.057L309.158 129.678C308.848 129.349 308.969 129.354 308.867 128.74L308.565 128.608C308.483 127.117 308.741 125.024 308.647 123.134C308.386 117.887 308.021 112.69 307.508 107.461C307.35 105.85 307.382 103.49 307.044 102.08C304.713 103.086 294.546 106.861 292.287 106.597L291.421 106.089C291.873 105.314 291.944 105.473 291.897 104.735C291.517 104.734 291.138 104.721 290.76 104.696C287.79 104.499 281.999 103.426 279.924 101.072L280.226 100.468C279.414 100.87 293.04 100.098 293.608 100.094C301.026 100.04 310.322 93.9567 316.985 95.8676C320.7 97.5653 323.468 97.8438 327.493 98.6165C328.498 98.8196 329.348 99.0582 330.369 99.0031L332.025 99.6943C332.535 99.1147 333.192 98.1931 333.677 97.556C336.33 94.9379 336.745 88.2371 336.512 84.7692C336.492 82.9784 336.155 82.0234 335.675 80.2856C339.006 80.1502 346.149 74.3487 348.477 71.801C349.344 71.1568 349.807 70.8184 350.574 70.0715C353.973 68.2843 356.081 67.5719 359.792 66.6203Z"/><path fill="#FDF486" d="M307.044 102.08C308.149 101.928 309.137 101.662 310.218 101.397C309.754 101.073 308.149 101.391 307.515 101.482L307.476 101.284C308.471 100.42 311.587 98.0972 312.771 98.3601L312.67 98.5998L312.885 98.916L313.476 98.8327C319.355 104.223 324.149 106.358 331.973 103.363C331.52 112.218 329.543 113.985 327.121 121.678C325.88 123.915 324.869 127.028 323.841 129.409C322.553 132.394 321.3 135.557 320.536 138.703C320.393 139.292 320.748 140.311 320.795 140.907C317.934 138.695 320.342 134.21 319.424 132.325C317.381 131.148 314.381 129.227 311.928 129.729C311.174 130.45 311.796 130.622 310.896 131.6L310.453 131.067C310.395 131.761 310.402 131.744 310.149 132.392L309.741 132.253L309.598 131.633C309.311 131.95 309.956 133.046 309.66 134.18L309.28 134.057L309.158 129.678C308.848 129.349 308.969 129.354 308.867 128.74L308.565 128.608C308.483 127.117 308.741 125.024 308.647 123.134C308.386 117.887 308.021 112.69 307.508 107.461C307.35 105.85 307.382 103.49 307.044 102.08Z"/><path fill="#A5524C" d="M307.044 102.08C308.149 101.928 309.137 101.662 310.218 101.397C309.754 101.073 308.149 101.391 307.515 101.482L307.476 101.284C308.471 100.42 311.587 98.0972 312.771 98.3601L312.67 98.5998L312.885 98.916L312.833 99.099C312.065 101.744 311.07 103.95 310.464 106.827C308.87 114.399 308.987 122.014 309.158 129.678C308.848 129.349 308.969 129.354 308.867 128.74L308.565 128.608C308.483 127.117 308.741 125.024 308.647 123.134C308.386 117.887 308.021 112.69 307.508 107.461C307.35 105.85 307.382 103.49 307.044 102.08Z"/><defs><linearGradient id="gradient_13" gradientUnits="userSpaceOnUse" x1="324.45413" y1="95.396164" x2="324.70523" y2="121.27953"><stop offset="0" stop-color="#A13D47"/><stop offset="1" stop-color="#B25074"/></linearGradient></defs><path fill="url(#gradient_13)" d="M279.924 101.072L280.226 100.468C279.414 100.87 293.04 100.098 293.608 100.094C301.026 100.04 310.322 93.9567 316.985 95.8676C320.7 97.5653 323.468 97.8438 327.493 98.6165C328.498 98.8196 329.348 99.0582 330.369 99.0031L332.025 99.6943C335.692 102.507 338.948 105.762 342.613 108.415L344.701 109.874C345.584 110.46 349.651 113.073 350.196 113.599C351.586 115.392 355.076 116.845 357.139 117.673C359.953 115.704 363.558 106.283 365.173 102.773C366.484 101.966 367.162 100.537 368.299 99.4249C368.129 101.104 367.22 101.616 367.417 103.804C366.426 108.271 362.131 117.504 359.202 121.042C358.176 122.282 350.649 117.954 348.837 117.72C348.428 118.024 348.449 117.994 348.28 118.475C348.216 118.261 348.156 117.397 348.13 117.122L347.407 117.095C345.576 115.758 340.501 113.292 339.556 111.339L340.394 110.395C339.709 109.131 337.702 108.424 336.484 109.848L335.788 110.047C334.561 112.549 330.662 122.983 327.121 121.678C329.543 113.985 331.52 112.218 331.973 103.363C324.149 106.358 319.355 104.223 313.476 98.8327L312.885 98.916L312.67 98.5998L312.771 98.3601C311.587 98.0972 308.471 100.42 307.476 101.284L307.515 101.482C308.149 101.391 309.754 101.073 310.218 101.397C309.137 101.662 308.149 101.928 307.044 102.08C304.713 103.086 294.546 106.861 292.287 106.597L291.421 106.089C291.873 105.314 291.944 105.473 291.897 104.735C291.517 104.734 291.138 104.721 290.76 104.696C287.79 104.499 281.999 103.426 279.924 101.072Z"/><path fill="#C25980" d="M347.407 117.095C345.576 115.758 340.501 113.292 339.556 111.339L340.394 110.395C342.464 111.415 344.739 113.014 346.601 114.381C348.484 115.764 348.197 114.765 350.086 115.348C349.522 115.843 349.105 115.867 348.329 116.003L347.574 115.702C347.515 116.394 347.409 116.104 347.76 116.629L348.025 116.652L348.13 117.122L347.407 117.095Z"/><path fill="#C25980" d="M366.526 68.3431C368.159 69.1575 368.526 69.4264 369.956 70.5768C370.619 71.2799 371.288 71.8139 371.517 72.7162L371.418 73.287L371.566 74.0167C371.344 80.9978 371.372 87.4787 370.066 94.3678C369.946 94.9734 369.623 96.3966 369.598 96.9426C369.062 98.7718 368.149 102.18 367.417 103.804C367.22 101.616 368.129 101.104 368.299 99.4249C367.162 100.537 366.484 101.966 365.173 102.773C363.558 106.283 359.953 115.704 357.139 117.673C355.076 116.845 351.586 115.392 350.196 113.599C351.932 114.343 352.935 115.543 355.029 115.915C355.915 115.775 357.319 114.779 357.884 114.273C360.654 111.793 361.933 108.423 361.939 104.779C361.939 104.601 363.243 102.452 363.365 101.895C364.59 96.3087 367.426 91.0479 368.004 85.3902C368.152 83.9191 369.064 83.7325 369.119 82.9099C369.372 79.1295 369.711 75.3089 369.669 71.5211C369.663 71.0258 367.076 69.3757 366.526 68.3431Z"/><path fill="#A5524C" d="M365.173 102.773C368.089 96.5947 368.847 91.0034 369.732 84.3053C370.017 82.157 370.182 74.5232 371.418 73.287L371.566 74.0167C371.344 80.9978 371.372 87.4787 370.066 94.3678C369.946 94.9734 369.623 96.3966 369.598 96.9426C369.062 98.7718 368.149 102.18 367.417 103.804C367.22 101.616 368.129 101.104 368.299 99.4249C367.162 100.537 366.484 101.966 365.173 102.773Z"/><path fill="#E27EA6" d="M342.613 108.415C342.649 107.551 342.642 106.181 342.937 104.975C343.549 102.473 345.885 100.349 346.779 98.1913C346.673 98.0503 346.566 97.9092 346.46 97.7682L345.373 97.4154C346.166 96.7657 347.993 96.7175 349.007 96.8841C352.045 97.3834 353.908 97.9322 354.67 100.951C354.432 101.363 353.45 103.237 353.263 103.426C351.682 105.02 346.565 108.837 344.701 109.874L342.613 108.415Z"/><path fill="#FDF486" d="M97.4703 93.7987C96.6992 96.2533 88.5537 104.456 88.2178 105.768C89.0554 106.703 89.6328 105.378 89.5835 108.15C89.573 108.739 89.4438 109.572 89.3603 110.193C90.0954 111.038 90.3284 111.303 91.2126 111.978C91.2817 111.98 91.3507 111.982 91.4198 111.983C94.42 112.39 97.7684 113.172 100.627 114.157C101.901 114.595 103.017 115.456 104.411 115.922C108.026 117.132 111.627 118.251 115.244 119.443C116.264 119.779 117.423 120.035 118.501 119.981C120.002 119.847 120.904 121.159 122.41 120.923C124.642 121.107 126.586 121.44 128.965 121.573C134.852 121.901 141.052 121.824 146.861 122.612C151.654 123.263 157.559 125.35 162.239 125.899C167.267 126.488 173.472 125.362 178.769 125.872C184.021 126.377 191.589 129.45 196.256 129.824C206.767 130.669 217.973 130.142 228.501 130.125L249.957 130.134C257.229 130.187 264.053 130.369 271.326 129.465C273.166 129.236 274.709 129.165 275.112 127.047L274.943 126.399C275.344 126.251 275.744 126.099 276.143 125.945L275.969 125.691C275.242 125.727 274.933 125.773 274.203 125.628L274.026 125.208L274.392 124.532L274.783 124.298C275.836 121.101 282.712 115.586 285.157 112.787C286.277 111.505 290.287 106.914 291.421 106.089L292.287 106.597C294.546 106.861 304.713 103.086 307.044 102.08C307.382 103.49 307.35 105.85 307.508 107.461C308.021 112.69 308.386 117.887 308.647 123.134C308.741 125.024 308.483 127.117 308.565 128.608L308.867 128.74C308.969 129.354 308.848 129.349 309.158 129.678L309.28 134.057C309.26 134.851 309.347 135.609 309.005 136.264C308.624 136.159 308.636 136.235 308.42 136.016L306.221 134.917C303.556 134.21 300.12 129.566 297.87 127.406L297.531 127.47C295.316 134.11 289.725 130.747 284.463 131.458C277.859 132.351 270.922 132.411 264.325 133.393C258.96 134.191 254.571 133.742 249.238 133.651L227.625 133.392C217.413 133.337 207.068 133.455 196.856 133.053C192.703 132.89 187.25 130.748 182.964 130.189C175.807 129.257 168.916 130.178 161.848 129.805C156.744 129.536 150.777 127.775 145.68 127.194C142.953 126.884 139.5 127.095 136.681 126.825C134.162 126.584 131.713 126.244 129.193 125.966C128.294 125.724 126.67 126.107 125.865 125.904C122.022 124.935 118.112 124.459 114.202 123.862C113.784 123.798 112.791 122.849 112.278 122.705C110.054 122.08 107.778 121.607 105.578 120.876C102.625 119.568 99.5131 118.272 96.5688 116.966C94.5736 116.08 90.8499 116.278 88.513 114.746C87.1701 113.85 86.2413 112.454 85.9336 110.87C85.6993 109.692 85.6819 109.02 86.2846 108.09C84.8897 108.322 83.804 112.336 82.3012 112.672C84.6937 108.513 87.9283 105.195 90.9676 101.509C92.8347 99.2444 95.3399 95.6921 97.4703 93.7987Z"/><defs><linearGradient id="gradient_14" gradientUnits="userSpaceOnUse" x1="311.96027" y1="114.70332" x2="278.85254" y2="130.1499"><stop offset="0" stop-color="#D8799C"/><stop offset="1" stop-color="#F393C0"/></linearGradient></defs><path fill="url(#gradient_14)" d="M307.044 102.08C307.382 103.49 307.35 105.85 307.508 107.461C308.021 112.69 308.386 117.887 308.647 123.134C308.741 125.024 308.483 127.117 308.565 128.608L308.867 128.74C308.969 129.354 308.848 129.349 309.158 129.678L309.28 134.057C309.26 134.851 309.347 135.609 309.005 136.264C308.624 136.159 308.636 136.235 308.42 136.016L306.221 134.917C305.724 134.41 304.658 133.489 304.088 133.02C301.25 130.682 296.637 124.17 293.128 123.451C289.393 122.84 278.929 125.251 274.783 124.298C275.836 121.101 282.712 115.586 285.157 112.787C286.277 111.505 290.287 106.914 291.421 106.089L292.287 106.597C294.546 106.861 304.713 103.086 307.044 102.08Z"/><path fill="#8D5F24" d="M308.565 128.608L308.867 128.74C308.969 129.354 308.848 129.349 309.158 129.678L309.28 134.057C309.26 134.851 309.347 135.609 309.005 136.264C308.624 136.159 308.636 136.235 308.42 136.016C308.196 133.58 308.295 131.037 308.565 128.608Z"/><path fill="#4F370F" d="M274.783 124.298C278.929 125.251 289.393 122.84 293.128 123.451C290.262 124.126 276.965 126.107 274.617 125.037L274.392 124.532L274.783 124.298Z"/><path fill="#E27EA6" d="M336.484 109.848C337.702 108.424 339.709 109.131 340.394 110.395L339.556 111.339C340.501 113.292 345.576 115.758 347.407 117.095L348.13 117.122C348.156 117.397 348.216 118.261 348.28 118.475C349.392 123.751 350.703 132.545 351.998 137.282C352.294 139.304 353.423 145.105 352.283 146.636L351.797 146.785C350.354 145.74 348.974 145.102 347.287 143.772C344.285 141.405 341.729 138.939 338.893 136.403C337.453 135.6 337.11 135.434 335.496 135.922C331.63 137.09 324.987 140.922 321.082 141.145L320.795 140.907C320.748 140.311 320.393 139.292 320.536 138.703C321.3 135.557 322.553 132.394 323.841 129.409C324.869 127.028 325.88 123.915 327.121 121.678C330.662 122.983 334.561 112.549 335.788 110.047L336.484 109.848Z"/><path fill="#824015" d="M347.407 117.095L348.13 117.122C348.156 117.397 348.216 118.261 348.28 118.475C349.392 123.751 350.703 132.545 351.998 137.282C352.294 139.304 353.423 145.105 352.283 146.636L351.797 146.785C352.295 141.118 349.678 128.839 347.861 123.295C347.892 122.048 347.408 122.044 347.648 120.23C347.867 120.611 347.877 121.37 347.93 121.863C348.093 120.404 348.296 118.178 347.06 117.224L347.407 117.095Z"/><path fill="#AD455C" d="M336.484 109.848C337.702 108.424 339.709 109.131 340.394 110.395L339.556 111.339C340.501 113.292 345.576 115.758 347.407 117.095L347.06 117.224C348.296 118.178 348.093 120.404 347.93 121.863C347.877 121.37 347.867 120.611 347.648 120.23C347.408 122.044 347.892 122.048 347.861 123.295C347.203 122.186 346.511 119.234 346.066 118.774C343.074 115.679 339.544 112.989 336.484 109.848Z"/><path fill="#824015" d="M336.687 134.787C337.795 135.395 338.022 135.503 338.893 136.403C337.453 135.6 337.11 135.434 335.496 135.922C331.63 137.09 324.987 140.922 321.082 141.145L320.795 140.907C322.074 140.277 325.391 139.068 326.881 138.491C329.839 137.347 333.702 135.6 336.687 134.787Z"/><path fill="#FDF486" d="M369.598 96.9426C369.788 97.9662 369.722 98.0486 369.435 99.0847C370.603 101.119 380.995 103.311 378.078 110.333C375.751 115.937 372.639 118.542 366.52 117.914C366.047 117.865 365.409 118.648 364.265 118.52C363.492 117.844 363.55 117.668 362.702 117.525C360.778 118.308 361.068 123.641 354.991 120.795C353.921 120.294 350.482 118.743 349.359 118.63C348.478 120.215 352.412 134.894 352.319 137.248L351.998 137.282C350.703 132.545 349.392 123.751 348.28 118.475C348.449 117.994 348.428 118.024 348.837 117.72C350.649 117.954 358.176 122.282 359.202 121.042C362.131 117.504 366.426 108.271 367.417 103.804C368.149 102.18 369.062 98.7718 369.598 96.9426Z"/><path fill="#AEABA3" d="M84.0357 154.467C88.2465 150.827 95.243 144.818 100.825 144.706C100.463 145.697 100.151 145.994 100.408 146.849C101.175 147.272 101.749 147.391 102.595 147.637C99.1617 149.492 94.5911 152.025 91.6922 154.494C86.666 158.776 82.0122 164.19 77.3342 168.949L77.2404 168.671C76.3692 169.543 75.6181 168.945 74.362 170.304C76.9044 162.834 78.5157 160.475 84.0357 154.467Z"/><path fill="#0E0F04" d="M114.945 144.591C117.453 145.361 119.157 146.069 121.569 147.104C134.321 154.247 140.288 163.082 146.866 175.809C148.093 178.183 148.712 181.298 149.876 183.488C150.836 186.499 152.774 193.18 153.805 195.831C154.297 198.1 155.606 203.325 155.741 205.385L155.472 205.376L155.147 204.989C153.823 202.966 152.561 199.452 151.994 197.109C151.926 192.231 146.215 177.534 143.744 172.983C138.593 163.497 133.758 156.354 124.144 150.846C120.564 148.795 119.409 147.644 115.096 146.319C114.559 145.444 114.368 145.355 114.945 144.591Z"/><path fill="#FDF486" d="M84.0357 154.467C85.4477 151.919 93.2467 146.572 95.9315 145.105C99.7456 143.022 107.595 141.786 111.924 143.031L111.536 143.046C113.929 143.694 120.43 145.384 121.569 147.104C119.157 146.069 117.453 145.361 114.945 144.591C114.368 145.355 114.559 145.444 115.096 146.319C112.326 145.501 111.614 145.364 108.753 145.609C106.402 146.154 104.73 146.502 102.595 147.637C101.749 147.391 101.175 147.272 100.408 146.849C100.151 145.994 100.463 145.697 100.825 144.706C95.243 144.818 88.2465 150.827 84.0357 154.467Z"/><path fill="#7D7A78" d="M100.825 144.706C102.864 144.603 104.62 143.924 106.897 143.988C107.863 144.563 108.162 144.466 109.294 144.457L109.642 144.892C109.074 144.909 108.651 144.871 108.13 145.094L108.753 145.609C106.402 146.154 104.73 146.502 102.595 147.637C101.749 147.391 101.175 147.272 100.408 146.849C100.151 145.994 100.463 145.697 100.825 144.706Z"/><path fill="#42464A" d="M106.897 143.988C109.736 143.713 112.174 143.76 114.945 144.591C114.368 145.355 114.559 145.444 115.096 146.319C112.326 145.501 111.614 145.364 108.753 145.609L108.13 145.094C108.651 144.871 109.074 144.909 109.642 144.892L109.294 144.457C108.162 144.466 107.863 144.563 106.897 143.988Z"/><path fill="#0E0F04" d="M148.392 277.527C149.227 278.965 149.013 279.395 148.717 281.067C144.502 292.362 142.41 295.332 135.228 304.718L134.552 303.956C136.41 301.769 137.403 299.776 138.897 297.499C143.44 290.574 145.684 285.241 148.392 277.527Z"/><path fill="#3B3B03" d="M150.229 269.584C150.531 269.639 151.261 269.795 151.527 269.791C152.075 272.458 149.825 278.476 148.717 281.067C149.013 279.395 149.227 278.965 148.392 277.527C149.181 274.955 149.683 272.225 150.229 269.584Z"/><path fill="#FBDB2E" d="M149.876 183.488L150.308 183.486C152.172 187.572 154.537 191.096 153.805 195.831C152.774 193.18 150.836 186.499 149.876 183.488Z"/><path fill="#7E7402" d="M157.15 210.254C157.229 211.124 157.168 214.682 156.762 215.359L156.589 215.247C156.557 213.724 156.203 211.875 155.955 210.342C156.454 210.383 156.637 210.321 157.15 210.254Z"/><path fill="#CE842D" d="M430.407 155.185C434.199 163.647 435.704 169.956 437.705 178.874C439.323 186.088 441.413 193.376 442.404 200.847C444.474 216.525 444.629 232.244 443.335 247.992C442.997 252.102 441.88 256.128 441.401 260.103C440.635 266.458 439.927 272.217 437.777 278.299C437.432 279.277 437.181 281.45 436.835 282.169C436.208 287.078 433.608 298.396 431.172 302.582C430.626 304.411 428.332 309.566 427.361 311.306C425.464 314.79 424.251 317.731 422.594 321.293C419.72 328.333 417.175 332.174 413.151 338.553C410.577 342.634 408.967 345.6 405.866 349.473C404.752 351.205 398.923 359.517 397.686 360.526C393.375 366.718 380.543 380.188 374.616 384.477L371.615 386.874C366.313 391.665 362.527 395.611 356.571 399.697L354.963 400.669C352.013 402.674 348.953 404.465 346.064 406.438C343.756 408.17 341.426 409.974 339.001 411.531C334.154 414.641 328.639 417.104 323.44 419.583C319.409 421.742 311.25 424.818 306.657 426.425C301.789 428.343 288.941 432.995 283.931 433.31C279.564 434.569 276.449 435.48 271.949 436.155C270.781 436.106 264.116 437.44 262.501 437.701C257.567 438.503 252.6 439.087 247.614 439.454C225.743 440.989 197.352 437.387 176.121 431.506C173.424 430.944 167.956 429.903 165.453 429.009C153.547 424.76 141.811 420.041 130.69 413.999C127.978 412.223 123.085 410.623 120.655 408.744C115.774 404.97 110.273 402.319 105.292 399.036C104.176 396.873 105.06 396.259 103.959 394.665L102.645 393.258C104.277 392.73 113.521 392.475 115.446 392.595C112.921 393.791 106.658 392.35 105.578 393.267C105.84 396.142 115.634 400.166 117.338 401.672C122.42 406.163 126.105 407.434 131.666 410.306C138.007 414.872 144.087 416.893 151.052 419.864C159.536 423.482 168.952 426.943 177.385 430.521L177.062 430.528C187.408 435.283 222.579 439.315 234.595 438.937C237.718 438.839 237.342 436.4 242.153 436.353C246.963 436.306 263.501 436.964 267.081 435.625C268.343 435.152 269.647 435.069 270.919 434.672C273.389 433.9 277.603 431.136 280.081 431.365C281.436 431.489 303.57 425.613 304.907 425.016C307.133 424.023 309.113 422.36 311.29 421.233C313.117 420.288 315.2 420.037 317.074 419.239C319.863 418.051 322.453 416.275 325.268 415.034C326.909 414.311 327.894 413.02 329.363 412.088C331.218 410.911 333.789 410.621 335.764 409.53C337.837 408.385 339.936 407.142 341.885 405.802C343.75 404.519 345.499 402.578 347.659 401.862C349.496 401.253 351.836 401.075 353.41 399.867C354.652 398.913 355.163 396.759 356.336 395.619C357.55 394.439 359.137 393.468 360.472 392.402C363.114 390.292 365.692 388.039 368.427 386.055C371.224 384.026 371.64 385.584 373.193 384.43C373.662 383.613 373.398 383.147 373.45 382.57C373.574 381.195 377.035 378.093 378.021 377.192C386.046 369.91 393.32 361.841 399.733 353.107C402.839 348.796 405.622 343.891 408.767 339.545C409.916 337.956 410.727 335.479 411.838 333.808C414.36 330.014 416.734 326.131 419.112 322.245C420.477 319.928 421.815 316.366 423.064 313.84C424.238 311.465 425.369 308.866 426.532 306.464C427.135 305.218 427.614 301.581 428.14 300.518C429.222 298.328 430.09 296.948 431.015 294.513C433.143 288.905 435.005 283.435 436.542 277.636C436.883 276.347 437.599 274.721 437.852 273.645C438.262 271.896 438.238 269.529 438.714 267.684C439.427 264.914 439.911 262.16 440.379 259.344C440.498 258.631 440.808 258.06 440.903 257.299L440.692 256.913C440.473 256.502 440.088 255.879 440.036 255.415C439.678 252.165 441.549 241.115 442.536 237.862C443.481 234.748 442.292 220.19 442.044 215.936C442 215.19 441.752 214.649 441.324 214.037C441.261 213.947 441.187 213.867 441.12 213.78C439.112 211.181 436.983 184.525 436.494 179.699C436.392 178.685 435.674 177.052 435.85 176.137C435.92 175.772 436.185 174.961 436.133 174.606C436.033 173.924 435.565 173.055 435.366 172.367C434.716 170.125 430.29 156.869 430.364 155.633C430.373 155.484 430.393 155.335 430.407 155.185Z"/><defs><linearGradient id="gradient_15" gradientUnits="userSpaceOnUse" x1="135.92168" y1="417.17505" x2="139.14005" y2="408.81406"><stop offset="0" stop-color="#C37E1E"/><stop offset="1" stop-color="#CC9F75"/></linearGradient></defs><path fill="url(#gradient_15)" d="M103.959 394.665C106.091 394.831 110.629 398.495 112.636 399.783C114.65 401.075 118.046 402.758 119.719 404.122C123.898 407.531 127.042 409.07 131.818 411.283C136.197 413.312 140.599 416.816 145.4 418.373C150.845 420.703 172.728 428.529 176.121 431.506C173.424 430.944 167.956 429.903 165.453 429.009C153.547 424.76 141.811 420.041 130.69 413.999C127.978 412.223 123.085 410.623 120.655 408.744C115.774 404.97 110.273 402.319 105.292 399.036C104.176 396.873 105.06 396.259 103.959 394.665Z"/><path fill="#B08C5E" d="M425.654 310.352L426.565 310.138C427.059 310.552 427.081 310.725 427.361 311.306C425.464 314.79 424.251 317.731 422.594 321.293C419.72 328.333 417.175 332.174 413.151 338.553C410.577 342.634 408.967 345.6 405.866 349.473C406.032 348.902 406.042 348.831 406.092 348.237C405.191 348.59 404.226 351.499 402.793 351.801C402.191 350.361 406.318 346.355 406.683 343.813C408.615 341.555 410.512 337.407 412.091 334.864C414.813 330.478 417.565 326.059 420.207 321.626C421.615 319.263 422.251 316.811 424.13 314.55C424.422 313.403 425.172 311.445 425.654 310.352Z"/><path fill="#9A8A6D" d="M425.654 310.352L426.565 310.138C427.059 310.552 427.081 310.725 427.361 311.306C425.464 314.79 424.251 317.731 422.594 321.293C421.785 320.638 423.811 316.047 424.13 314.55C424.422 313.403 425.172 311.445 425.654 310.352Z"/><path fill="#B58442" d="M306.657 426.425C306.87 426.164 310.864 422.57 311.155 422.429C315.845 420.158 321.13 417.99 325.717 415.534C329.545 413.484 329.713 412.327 334.32 410.935C330.714 417.144 325.671 416.448 323.44 419.583C319.409 421.742 311.25 424.818 306.657 426.425Z"/><path fill="#B08C5E" d="M390.332 366.252C393.478 366.101 395.144 361.671 397.686 360.526C393.375 366.718 380.543 380.188 374.616 384.477C376.019 382.599 374.492 381.853 376.982 379.139C381.15 374.598 386.216 370.836 390.332 366.252Z"/><path fill="#B08C5E" d="M334.32 410.935C336.189 409.947 344.678 404.673 345.95 404.727C345.677 405.765 345.696 405.343 346.064 406.438C343.756 408.17 341.426 409.974 339.001 411.531C334.154 414.641 328.639 417.104 323.44 419.583C325.671 416.448 330.714 417.144 334.32 410.935Z"/><path fill="#B08C5E" d="M356.571 399.697C356.661 399.42 356.802 398.996 356.726 398.715C356.298 397.114 357.406 395.879 358.603 394.848C361.773 392.118 365.088 388.921 368.805 386.968C369.089 386.818 371.194 386.866 371.615 386.874C366.313 391.665 362.527 395.611 356.571 399.697Z"/><path fill="#B58442" d="M406.683 343.813C406.318 346.355 402.191 350.361 402.793 351.801C404.226 351.499 405.191 348.59 406.092 348.237C406.042 348.831 406.032 348.902 405.866 349.473C404.752 351.205 398.923 359.517 397.686 360.526C395.144 361.671 393.478 366.101 390.332 366.252C390.951 364.917 394.416 360.378 395.462 359.442C400.381 355.036 402.805 349.201 406.683 343.813Z"/><defs><linearGradient id="gradient_16" gradientUnits="userSpaceOnUse" x1="426.98309" y1="303.2399" x2="430.26764" y2="306.27945"><stop offset="0" stop-color="#BE8D5F"/><stop offset="1" stop-color="#9E9472"/></linearGradient></defs><path fill="url(#gradient_16)" d="M432.599 292.229C432.371 295.209 430.914 299.387 431.172 302.582C430.626 304.411 428.332 309.566 427.361 311.306C427.081 310.725 427.059 310.552 426.565 310.138L425.654 310.352C428.063 304.37 430.062 298.337 432.599 292.229Z"/><path fill="#B08C5E" d="M432.599 292.229C433.559 287.473 434.184 289.429 435.527 287.459C435.147 285.472 435.973 283.992 436.835 282.169C436.208 287.078 433.608 298.396 431.172 302.582C430.914 299.387 432.371 295.209 432.599 292.229Z"/><path fill="#8D5F24" d="M345.95 404.727C348.232 404.206 352.043 400.757 354.963 400.669C352.013 402.674 348.953 404.465 346.064 406.438C345.696 405.343 345.677 405.765 345.95 404.727Z"/><path fill="#705B50" d="M271.949 436.155L271.34 435.941L271.403 435.641C272.933 434.633 281.717 433.313 283.931 433.31C279.564 434.569 276.449 435.48 271.949 436.155Z"/><defs><linearGradient id="gradient_17" gradientUnits="userSpaceOnUse" x1="107.41984" y1="378.99515" x2="106.11734" y2="393.3504"><stop offset="0" stop-color="#7C4501"/><stop offset="1" stop-color="#A0660B"/></linearGradient></defs><path fill="url(#gradient_17)" d="M85.8187 381.72C86.3035 381.383 87.2736 381.156 88.0273 380.938C93.8496 379.254 100.974 380.147 106.996 379.911C111.741 379.726 115.532 379.844 120.171 379.864C123.279 379.964 124.72 381.072 126.646 383.316C127.995 393.091 121.958 391.723 115.446 392.595C113.521 392.475 104.277 392.73 102.645 393.258C101.139 393.185 99.0886 393.22 97.6325 393.61C90.9933 390.591 89.6908 388.001 85.8187 381.72Z"/><path fill="#FBDB2E" d="M188.376 41.4623C188.623 40.8316 188.695 40.6706 189.248 40.286C190.065 39.718 190.863 39.9458 191.765 40.1379C193.665 40.5423 200.861 37.1039 202.859 37.7635C203.261 37.8961 203.265 38.1717 203.843 38.2555L203.716 37.7698L204.242 37.6301C204.859 37.8556 205.455 38.1209 206.112 37.939C206.156 37.5491 206.325 35.9709 206.568 35.7981C210.32 33.1231 219.878 31.4768 224.35 31.1283C228.266 30.8232 233.126 31.1279 236.819 31.2977C240.179 31.6013 243.572 33.0712 246.817 33.688C255.181 35.278 263.467 35.9992 271.611 38.7256C272.85 39.1402 275.666 39.0143 276.541 39.7355C278.01 40.0053 278.151 40.5209 278.401 40.5858C281.167 41.3033 286.042 40.2286 288.902 40.45C290.244 40.5539 293.394 42.654 294.666 43.0545C297.033 43.7417 299.475 43.5001 301.819 44.325C303.467 44.9054 304.615 47.0301 305.924 47.722C311.912 50.8854 318.404 53.6359 322.795 59.0805C321.054 58.0477 314.937 55.6717 312.608 54.5942C306.478 51.7013 300.492 48.514 294.67 45.0436C287.859 41.0224 286.822 43.0733 280.008 42.3052L279.772 42.277C275.553 40.9121 272.932 40.2532 268.644 39.2479C259.064 38.0659 248.437 37.4012 238.784 36.8779C227.686 36.2763 216.057 37.9771 204.95 38.5296C199.991 38.9354 193.404 40.612 188.376 41.4623Z"/><path fill="#F7C371" d="M280.947 22.2248C282.901 22.6521 284.962 23.1224 286.914 23.4011C293.877 24.3949 301.151 27.1037 307.603 29.7748C318.218 34.1692 329.275 37.3227 338.629 44.2122C340.173 45.3495 342.165 46.5674 343.842 47.5602C350.005 50.7569 354.657 53.6188 359.799 58.3326C360.208 58.7069 361.844 59.9663 362.014 60.3194L361.682 60.421C361.138 60.2326 361.416 60.3193 360.847 60.1621C359.871 60.6268 358.911 60.1895 358.002 59.7917C357.361 59.3234 352.44 56.8939 351.216 56.1783C348.355 54.5052 346.556 53.1365 343.88 51.2703C343.404 50.9601 343.137 50.8292 342.824 50.3535C341.697 48.666 340.221 47.2408 338.494 46.1747C336.698 45.0738 334.14 44.5657 332.233 43.5963C324.33 39.579 317.347 36.2673 308.673 34.2219C305.181 32.9434 301.759 31.0379 298.279 29.7872C292.142 27.5819 286.374 25.9183 280.947 22.2248Z"/><path fill="#EEB150" d="M358.002 59.7917C358.911 60.1895 359.871 60.6268 360.847 60.1621C361.416 60.3193 361.138 60.2326 361.682 60.421L362.014 60.3194C363.905 61.4569 370.728 66.5224 371.813 68.2506C378.642 74.5529 384.629 79.8438 390.633 87.0641C392.648 89.4863 394.46 92.1367 396.445 94.466C398.255 96.2163 400.516 99.4494 402.143 101.457C406.724 107.11 410.789 113.16 414.592 119.358C415.615 121.023 416.705 123.546 417.651 125.35C416.773 125.364 416.31 125.484 415.441 125.66C414.354 123.315 409.122 116.35 407.255 113.7C403.466 108.327 399.426 101.551 395.44 96.5157C395.425 96.4971 395.41 96.4785 395.395 96.4599C393.196 92.8395 388.846 89.6795 385.875 86.4921C384.847 85.3887 382.514 81.9948 381.954 81.4693C379.964 79.5989 374.183 73.9011 372.375 72.7497L371.939 72.9265L371.566 74.0167L371.418 73.287L371.517 72.7162C371.288 71.8139 370.619 71.2799 369.956 70.5768C368.526 69.4264 368.159 69.1575 366.526 68.3431C364.908 67.3065 361.75 66.5973 359.792 66.6203C360.693 66.0974 362.727 66.4094 364.135 66.072L364.311 65.7144C363.501 63.7681 360.123 62.0659 358.194 60.001L358.002 59.7917Z"/><path fill="#F7C371" d="M205.502 18.3847C212.5 16.257 228.904 15.6594 236.371 16.153C239.544 16.3628 243.636 17.1262 246.913 17.46C248.799 17.6521 250.953 17.693 252.797 17.9816C251.118 18.0045 249.277 17.9277 247.599 18.0935C243.577 18.4909 239.829 19.4125 235.752 19.612C226.512 20.064 217.297 18.853 208.078 19.7202C206.75 19.8451 206.588 18.8216 205.502 18.3847Z"/><path fill="#EEB150" d="M138.729 38.647C134.077 45.9197 128.041 47.4549 121.107 51.7884C119.097 53.0446 113.904 57.0221 111.868 57.4384L111.752 57.2469C113.131 56.7545 115.976 54.8244 117.126 53.8931C116.948 53.2224 117.116 53.5224 116.498 53.0345C115.968 53.1859 116.079 53.1422 115.611 53.379C112.51 52.3233 111.845 57.3071 108.295 57.1243C113.26 53.0771 121.569 47.4332 127.089 44.1337C129.526 42.6774 135.661 40.155 138.729 38.647Z"/><path fill="#FBDB2E" d="M334.136 66.5346C339.801 67.3111 341.473 68.6787 345.959 72.262C347.083 71.7051 349.503 70.4337 350.574 70.0715C349.807 70.8184 349.344 71.1568 348.477 71.801C346.628 72.3479 345.106 73.5828 343.234 73.8878C340.387 73.3085 336.538 68.6734 334.136 66.5346Z"/><path fill="#F7C371" d="M147.959 34.1278C153.128 31.3906 158.081 29.7825 163.571 27.9656C161.368 30.4447 160.22 30.6732 157.683 32.0861C156.255 32.5456 153.96 33.6374 152.662 33.9112C151.461 34.1647 149.439 33.7422 147.959 34.1278Z"/><path fill="#EEB150" d="M163.571 27.9656C166.949 26.7506 169.162 26.115 172.758 25.5109C172.248 25.884 171.693 26.3982 171.407 26.6297C168.887 28.6678 160.795 31.6247 157.683 32.0861C160.22 30.6732 161.368 30.4447 163.571 27.9656Z"/><path fill="#CE842D" d="M415.441 125.66C416.31 125.484 416.773 125.364 417.651 125.35C419.328 128.481 420.702 131.706 422.188 134.93C419.409 134.011 416.589 128.214 415.441 125.66Z"/><path fill="#EBD1AA" d="M97.6325 393.61C99.0886 393.22 101.139 393.185 102.645 393.258L103.959 394.665C105.06 396.259 104.176 396.873 105.292 399.036C102.691 397.402 99.9365 395.637 97.6325 393.61Z"/></svg>